<?xml version="1.0" encoding="utf-8"?>
<!-- Generator: Adobe Illustrator 19.1.0, SVG Export Plug-In . SVG Version: 6.00 Build 0)  -->
<svg version="1.1" id="Layer_1" xmlns="http://www.w3.org/2000/svg" xmlns:xlink="http://www.w3.org/1999/xlink" x="0px" y="0px"
	 viewBox="6911.8 7328.7 248.7 251.7" style="enable-background:new 6911.8 7328.7 248.7 251.7;" xml:space="preserve">
<style type="text/css">
	.st0{fill:#FFFFFF;}
</style>
<g>
	<g>
		<path class="st0" d="M7036.5,7328.7c-70.7,0-124.7,58.6-124.7,125c0,66.5,51.3,126.6,124.7,126.6c74.7,0,124-62.5,124-129
			C7160.5,7384.9,7103.8,7328.7,7036.5,7328.7z M6940,7485.3c-6.8-10-3.8-55.2,0.9-62.7c7,8,19.5,18.8,22.2,25.5
			C6958.2,7456.4,6947.1,7470.9,6940,7485.3z M7052.7,7354.4c-19.2,11.2-40,35-57,55c-7.2-7.8-17-13.5-32.5-25.2
			C6982.9,7363.1,7014.9,7347.9,7052.7,7354.4z M6980.9,7539.1c5.2-8.5,9.3-28.9,11.5-50c2.2,13.8,17.6,51,23.6,64.5
			C7004.5,7552.7,6989.2,7545.3,6980.9,7539.1z M7020.4,7554.4c19-28.5,38.2-53.5,49.8-65.2c-12.5-20.5-31-45.5-45.8-54.8
			c12-20.2,37-57.2,48.8-74C7166.2,7391.1,7158.9,7566.1,7020.4,7554.4z"/>
	</g>
	<g>
		<path class="st0" d="M7036.5,7328.7c-70.7,0-124.7,58.6-124.7,125c0,66.5,51.3,126.6,124.7,126.6c74.7,0,124-62.5,124-129
			C7160.5,7384.9,7103.8,7328.7,7036.5,7328.7z M6940,7485.3c-6.8-10-3.8-55.2,0.9-62.7c7,8,19.5,18.8,22.2,25.5
			C6958.2,7456.4,6947.1,7470.9,6940,7485.3z M7052.7,7354.4c-19.2,11.2-40,35-57,55c-7.2-7.8-17-13.5-32.5-25.2
			C6982.9,7363.1,7014.9,7347.9,7052.7,7354.4z M6980.9,7539.1c5.2-8.5,9.3-28.9,11.5-50c2.2,13.8,17.6,51,23.6,64.5
			C7004.5,7552.7,6989.2,7545.3,6980.9,7539.1z M7020.4,7554.4c19-28.5,38.2-53.5,49.8-65.2c-12.5-20.5-31-45.5-45.8-54.8
			c12-20.2,37-57.2,48.8-74C7166.2,7391.1,7158.9,7566.1,7020.4,7554.4z"/>
	</g>
</g>
<path class="st0" d="M7053.1,7406.1h8.1v10.1h15.7v7.4h-15.7v21c0,0.8,0.1,1.5,0.2,2.1c0.1,0.6,0.3,1.2,0.5,1.8
	c0.2,0.6,0.7,1,1.5,1.2c0.8,0.3,1.9,0.4,3.2,0.4l9.5-0.2v7.5H7066c-0.1,0-0.1,0-0.2,0c-0.1,0-0.1,0-0.2,0c-0.1,0-0.1,0-0.1,0
	c0,0-0.1,0-0.1,0.1c-0.1,0-0.1,0-0.2,0c-0.1,0-0.1,0-0.2,0c-0.1,0-0.1,0-0.1,0c0,0-0.1,0-0.1,0c-1.9,0-3.6-0.3-5.1-0.9
	c-1.4-0.6-2.6-1.5-3.5-2.7c-0.9-1.2-1.6-2.5-2.1-3.9c-0.5-1.4-0.8-2.8-0.9-4.3c-0.1-0.1-0.1-0.2-0.1-0.4c0-0.1,0-0.3,0-0.5
	c0-0.1,0-0.2,0-0.4s0-0.3,0-0.5v-0.2L7053.1,7406.1L7053.1,7406.1L7053.1,7406.1z"/>
<path class="st0" d="M7091.7,7416.3l12.8,32.5l11.5-32.5h8.9l-14.3,37.2c-0.3,0.9-0.7,1.6-1.2,2.2s-0.9,1.1-1.4,1.5
	c-0.5,0.3-1,0.6-1.6,0.9c-0.5,0.2-1.1,0.4-1.8,0.4c-0.1,0-0.1,0-0.1,0s-0.1,0-0.1,0s-0.1,0-0.2,0c-0.6,0-1.2-0.1-1.9-0.3
	c-0.6-0.2-1.2-0.4-1.9-0.8c-0.6-0.5-1.1-1-1.5-1.6c-0.5-0.6-0.9-1.3-1.2-2.2l-15-37.4L7091.7,7416.3L7091.7,7416.3z"/>
</svg>
